HIERARCHY
ROOT Hips
{
	OFFSET 0.000000 103.266502 0.000000
	CHANNELS 6 Xposition Yposition Zposition Xrotation Yrotation Zrotation 
	JOINT Spine
	{
		OFFSET -0.002400 12.777504 0.315300
		CHANNELS 3 Xrotation Yrotation Zrotation
		JOINT Spine1
		{
			OFFSET -0.002067 5.816869 0.032633
			CHANNELS 3 Xrotation Yrotation Zrotation
			JOINT Spine1_split
			{
				OFFSET -0.002067 5.816869 0.032633
				CHANNELS 3 Xrotation Yrotation Zrotation
				JOINT Spine2
				{
					OFFSET -0.002067 5.816869 0.032633
					CHANNELS 3 Xrotation Yrotation Zrotation
					JOINT Neck
					{
						OFFSET -0.003700 21.199493 -0.826900
						CHANNELS 3 Xrotation Yrotation Zrotation
						JOINT Head
						{
							OFFSET 0.000000 20.442200 4.834800
							CHANNELS 3 Xrotation Yrotation Zrotation
							JOINT HeadTop_End
							{
								OFFSET 0.000000 34.668396 4.968400
								CHANNELS 3 Xrotation Yrotation Zrotation
								End Site
								{
									OFFSET 0.000000 0.000000 0.000000
								}
							}
						}
					}
					JOINT LeftShoulder
					{
						OFFSET 3.288150 8.794197 -1.372250
						CHANNELS 3 Xrotation Yrotation Zrotation
						JOINT LeftShoulder_split
						{
							OFFSET 3.288150 8.794197 -1.372250
							CHANNELS 3 Xrotation Yrotation Zrotation
							JOINT LeftArm
							{
								OFFSET 11.953299 -2.279007 -0.146200
								CHANNELS 3 Xrotation Yrotation Zrotation
								JOINT LeftForeArm
								{
									OFFSET 18.448900 0.000000 0.000000
									CHANNELS 3 Xrotation Yrotation Zrotation
									JOINT LeftHand
									{
										OFFSET 29.527798 0.000000 0.000000
										CHANNELS 3 Xrotation Yrotation Zrotation
										JOINT LeftHandThumb1
										{
											OFFSET 10.739754 -2.369614 9.225399
											CHANNELS 3 Xrotation Yrotation Zrotation
											JOINT LeftHandThumb2
											{
												OFFSET 4.926170 -2.844131 2.844125
												CHANNELS 3 Xrotation Yrotation Zrotation
												JOINT LeftHandThumb3
												{
													OFFSET 4.614891 -2.664413 2.664409
													CHANNELS 3 Xrotation Yrotation Zrotation
													JOINT LeftHandThumb4
													{
														OFFSET 4.432465 -2.559082 2.559083
														CHANNELS 3 Xrotation Yrotation Zrotation
														End Site
														{
															OFFSET 0.000000 0.000000 0.000000
														}
													}
												}
											}
										}
										JOINT LeftHandIndex1
										{
											OFFSET 26.467674 0.187653 6.405298
											CHANNELS 3 Xrotation Yrotation Zrotation
											JOINT LeftHandIndex2
											{
												OFFSET 8.792900 0.000000 0.000000
												CHANNELS 3 Xrotation Yrotation Zrotation
												JOINT LeftHandIndex3
												{
													OFFSET 10.075203 0.000000 0.000000
													CHANNELS 3 Xrotation Yrotation Zrotation
													End Site
													{
														OFFSET 0.000000 0.000000 0.000000
													}
												}
											}
										}
										JOINT LeftHandMiddle1
										{
											OFFSET 25.764404 0.000000 0.000000
											CHANNELS 3 Xrotation Yrotation Zrotation
											JOINT LeftHandMiddle2
											{
												OFFSET 9.393974 0.000000 0.000000
												CHANNELS 3 Xrotation Yrotation Zrotation
												JOINT LeftHandMiddle3
												{
													OFFSET 10.771950 0.000000 0.000000
													CHANNELS 3 Xrotation Yrotation Zrotation
													End Site
													{
														OFFSET 0.000000 0.000000 0.000000
													}
												}
											}
										}
										JOINT LeftHandRing1
										{
											OFFSET 24.660927 0.144547 -6.225808
											CHANNELS 3 Xrotation Yrotation Zrotation
											JOINT LeftHandRing2
											{
												OFFSET 9.393799 0.000000 0.000000
												CHANNELS 3 Xrotation Yrotation Zrotation
												JOINT LeftHandRing3
												{
													OFFSET 9.928497 0.000000 0.000000
													CHANNELS 3 Xrotation Yrotation Zrotation
													End Site
													{
														OFFSET 0.000000 0.000000 0.000000
													}
												}
											}
										}
										JOINT LeftHandPinky1
										{
											OFFSET 23.655350 0.125290 -12.815412
											CHANNELS 3 Xrotation Yrotation Zrotation
											JOINT LeftHandPinky2
											{
												OFFSET 8.425102 0.000000 0.000000
												CHANNELS 3 Xrotation Yrotation Zrotation
												JOINT LeftHandPinky3
												{
													OFFSET 8.147003 0.000000 0.000000
													CHANNELS 3 Xrotation Yrotation Zrotation
													End Site
													{
														OFFSET 0.000000 0.000000 0.000000
													}
												}
											}
										}
									}
								}
							}
						}
					}
					JOINT RightShoulder
					{
						OFFSET -3.249400 8.794197 -1.372250
						CHANNELS 3 Xrotation Yrotation Zrotation
						JOINT RightShoulder_split
						{
							OFFSET -3.249400 8.794197 -1.372250
							CHANNELS 3 Xrotation Yrotation Zrotation
							JOINT RightArm
							{
								OFFSET -11.953299 -2.279007 -0.146200
								CHANNELS 3 Xrotation Yrotation Zrotation
								JOINT RightForeArm
								{
									OFFSET -18.448900 0.000000 0.000000
									CHANNELS 3 Xrotation Yrotation Zrotation
									JOINT RightHand
									{
										OFFSET -29.527802 0.000000 0.000000
										CHANNELS 3 Xrotation Yrotation Zrotation
										JOINT RightHandThumb1
										{
											OFFSET -10.739754 -2.369614 9.225399
											CHANNELS 3 Xrotation Yrotation Zrotation
											JOINT RightHandThumb2
											{
												OFFSET -4.926170 -2.844131 2.844125
												CHANNELS 3 Xrotation Yrotation Zrotation
												JOINT RightHandThumb3
												{
													OFFSET -4.614891 -2.664413 2.664409
													CHANNELS 3 Xrotation Yrotation Zrotation
													JOINT RightHandThumb4
													{
														OFFSET -4.432465 -2.559082 2.559083
														CHANNELS 3 Xrotation Yrotation Zrotation
														End Site
														{
															OFFSET 0.000000 0.000000 0.000000
														}
													}
												}
											}
										}
										JOINT RightHandIndex1
										{
											OFFSET -26.467674 0.187653 6.405298
											CHANNELS 3 Xrotation Yrotation Zrotation
											JOINT RightHandIndex2
											{
												OFFSET -8.792900 0.000000 0.000000
												CHANNELS 3 Xrotation Yrotation Zrotation
												JOINT RightHandIndex3
												{
													OFFSET -10.075203 0.000000 0.000000
													CHANNELS 3 Xrotation Yrotation Zrotation
													End Site
													{
														OFFSET 0.000000 0.000000 0.000000
													}
												}
											}
										}
										JOINT RightHandMiddle1
										{
											OFFSET -25.764404 0.000000 0.000000
											CHANNELS 3 Xrotation Yrotation Zrotation
											JOINT RightHandMiddle2
											{
												OFFSET -9.393974 0.000000 0.000000
												CHANNELS 3 Xrotation Yrotation Zrotation
												JOINT RightHandMiddle3
												{
													OFFSET -10.771950 0.000000 0.000000
													CHANNELS 3 Xrotation Yrotation Zrotation
													End Site
													{
														OFFSET 0.000000 0.000000 0.000000
													}
												}
											}
										}
										JOINT RightHandRing1
										{
											OFFSET -24.660927 0.144547 -6.225808
											CHANNELS 3 Xrotation Yrotation Zrotation
											JOINT RightHandRing2
											{
												OFFSET -9.393799 0.000000 0.000000
												CHANNELS 3 Xrotation Yrotation Zrotation
												JOINT RightHandRing3
												{
													OFFSET -9.928497 0.000000 0.000000
													CHANNELS 3 Xrotation Yrotation Zrotation
													End Site
													{
														OFFSET 0.000000 0.000000 0.000000
													}
												}
											}
										}
										JOINT RightHandPinky1
										{
											OFFSET -23.655350 0.125290 -12.815412
											CHANNELS 3 Xrotation Yrotation Zrotation
											JOINT RightHandPinky2
											{
												OFFSET -8.425102 0.000000 0.000000
												CHANNELS 3 Xrotation Yrotation Zrotation
												JOINT RightHandPinky3
												{
													OFFSET -8.147003 0.000000 0.000000
													CHANNELS 3 Xrotation Yrotation Zrotation
													End Site
													{
														OFFSET 0.000000 0.000000 0.000000
													}
												}
											}
										}
									}
								}
							}
						}
					}
				}
			}
		}
	}
	JOINT LeftUpLeg
	{
		OFFSET 11.394100 -6.187798 -0.413800
		CHANNELS 3 Xrotation Yrotation Zrotation
		JOINT LeftLeg
		{
			OFFSET 0.430247 -32.302673 3.732800
			CHANNELS 3 Xrotation Yrotation Zrotation
			JOINT LeftFoot
			{
				OFFSET -0.430247 -48.264931 -6.423300
				CHANNELS 3 Xrotation Yrotation Zrotation
				JOINT LeftToeBase
				{
					OFFSET 4.230900 -16.068199 23.438400
					CHANNELS 3 Xrotation Yrotation Zrotation
					JOINT LeftToe_End
					{
						OFFSET 4.510700 0.695400 19.974600
						CHANNELS 3 Xrotation Yrotation Zrotation
						End Site
						{
							OFFSET 0.000000 0.000000 0.000000
						}
					}
				}
			}
		}
	}
	JOINT RightUpLeg
	{
		OFFSET -11.333700 -6.187798 -0.413800
		CHANNELS 3 Xrotation Yrotation Zrotation
		JOINT RightLeg
		{
			OFFSET -0.430392 -32.302628 3.733000
			CHANNELS 3 Xrotation Yrotation Zrotation
			JOINT RightFoot
			{
				OFFSET 0.430392 -48.264973 -6.423500
				CHANNELS 3 Xrotation Yrotation Zrotation
				JOINT RightToeBase
				{
					OFFSET -4.230900 -16.068199 23.438400
					CHANNELS 3 Xrotation Yrotation Zrotation
					JOINT RightToe_End
					{
						OFFSET -4.510700 0.695400 19.974600
						CHANNELS 3 Xrotation Yrotation Zrotation
						End Site
						{
							OFFSET 0.000000 0.000000 0.000000
						}
					}
				}
			}
		}
	}
}
MOTION
Frames: 5
Frame Time: 0.016667
-0.165084 97.170700 -0.155437 1.363359 -27.071269 0.999171 3.665724 -1.992161 0.848693 1.363086 -0.820712 0.173836 0.000000 0.000000 0.000000 1.366612 -0.813806 0.178820 -1.889906 4.550427 2.461103 17.045039 24.869851 -12.698042 0.000000 0.000000 -0.000000 -0.311618 3.473788 4.919200 0.000000 0.000000 0.000000 -51.541806 -1.692570 -52.291898 -0.000895 -84.594488 -0.000940 -12.268085 -17.441592 -7.415576 27.590957 19.106286 -21.055322 27.859558 42.153004 14.703683 8.091819 17.848666 9.739468 -0.000001 0.000002 0.000003 6.438757 6.867028 -86.304617 7.312861 6.867701 -93.605291 0.000001 -0.000000 -0.000001 6.436817 6.866895 -86.288409 7.314806 6.867577 -93.621533 -0.000001 0.000001 0.000001 6.438754 6.867024 -86.304617 7.312865 6.867698 -93.605284 0.000001 -0.000002 0.000002 10.514969 7.128933 -86.291025 7.312030 2.781443 -93.595291 -0.000001 0.000000 0.000001 -1.129698 -10.661993 8.143388 0.000000 0.000000 0.000000 -61.066946 65.570438 77.632518 0.000590 81.745869 -0.000618 -15.442860 16.436765 -32.999595 35.509587 -4.573179 10.809928 66.380819 -29.908008 29.548747 25.917429 -18.540863 10.281098 0.000000 0.000001 -0.000002 5.945864 -6.875899 81.685340 8.620185 -6.745014 103.956579 0.000002 0.000000 -0.000001 5.945860 -6.875896 81.685340 8.620184 -6.745018 103.956558 -0.000000 -0.000003 -0.000001 5.945862 -6.875894 81.685340 8.620188 -6.745008 103.956579 -0.000003 0.000004 0.000000 5.945865 -6.875902 81.685340 8.620185 -6.745013 103.956579 0.000000 0.000000 -0.000000 -31.251531 25.194285 14.435477 26.381102 8.986950 10.479509 0.939410 0.301006 -11.226063 -0.000000 -0.000000 -0.000005 -0.000000 0.000001 -0.000000 -22.617996 -16.677232 -9.973039 31.294796 -1.223533 -7.212022 -10.750775 -1.469131 10.288469 -0.000020 0.000010 0.000001 -0.000000 0.000000 0.000000 
-0.163900 97.171951 -0.158348 1.363724 -27.065757 0.992890 3.660894 -1.992111 0.848973 1.363089 -0.820722 0.173820 0.000000 0.000000 0.000000 1.366616 -0.813799 0.178804 -1.882821 4.550438 2.481606 17.052703 24.883298 -12.703477 0.000003 0.000000 0.000000 -0.308280 3.435125 4.918957 0.000000 0.000000 0.000000 -51.567515 -1.700404 -52.299322 -0.000564 -84.588423 -0.000563 -12.294691 -17.380815 -7.430968 27.590949 19.106291 -21.055325 27.859544 42.153008 14.703683 8.091817 17.848667 9.739459 0.000002 0.000002 0.000001 6.438752 6.867028 -86.304617 7.312863 6.867699 -93.605291 0.000000 -0.000002 -0.000001 6.436813 6.866896 -86.288409 7.314801 6.867576 -93.621533 0.000000 -0.000000 -0.000001 6.438750 6.867024 -86.304617 7.312866 6.867700 -93.605297 -0.000001 0.000001 -0.000002 10.514967 7.128935 -86.291025 7.312032 2.781443 -93.595291 0.000000 -0.000000 -0.000005 -1.127377 -10.685150 8.203406 0.000000 0.000000 0.000000 -61.032726 65.576878 77.592616 0.000755 81.763293 -0.000779 -15.337702 16.323414 -32.921734 35.509583 -4.573175 10.809926 66.380819 -29.908012 29.548751 25.917433 -18.540866 10.281094 -0.000001 0.000001 -0.000001 5.945864 -6.875900 81.685347 8.620178 -6.745012 103.956579 0.000002 -0.000001 -0.000003 5.945861 -6.875899 81.685347 8.620186 -6.745012 103.956565 -0.000003 -0.000001 -0.000000 5.945863 -6.875894 81.685340 8.620183 -6.745015 103.956579 0.000000 0.000003 0.000002 5.945867 -6.875904 81.685347 8.620185 -6.745012 103.956579 -0.000001 -0.000000 -0.000002 -31.273022 25.231680 14.456575 26.384845 8.939759 10.480514 0.939595 0.301091 -11.214023 -0.000000 -0.000001 -0.000005 -0.000000 -0.000000 0.000000 -22.609589 -16.675900 -9.955269 31.283188 -1.245345 -7.222642 -10.744509 -1.469276 10.295698 -0.000020 0.000009 0.000001 -0.000000 -0.000002 -0.000000 
-0.164849 97.173027 -0.160044 1.364087 -27.059483 0.986615 3.654295 -1.992159 0.849224 1.361887 -0.820739 0.173845 0.000000 0.000000 0.000000 1.365415 -0.813861 0.178833 -1.873933 4.545142 2.494239 17.054407 24.886836 -12.705631 0.000002 0.000000 -0.000000 -0.307939 3.431326 4.918803 0.000000 0.000000 0.000000 -51.600816 -1.706252 -52.314803 0.000101 -84.572434 0.000127 -12.351134 -17.378797 -7.461661 27.590950 19.106291 -21.055325 27.859558 42.153004 14.703678 8.091818 17.848667 9.739460 -0.000001 -0.000002 0.000000 6.438754 6.867031 -86.304617 7.312865 6.867700 -93.605291 0.000002 -0.000000 -0.000001 6.436816 6.866893 -86.288416 7.314804 6.867576 -93.621533 0.000000 -0.000000 0.000001 6.438752 6.867027 -86.304617 7.312863 6.867698 -93.605291 -0.000000 -0.000001 0.000001 10.514968 7.128937 -86.291032 7.312027 2.781443 -93.595284 0.000001 0.000002 -0.000001 -1.125352 -10.703788 8.253317 0.000000 0.000000 0.000000 -60.998015 65.595894 77.553581 0.000020 81.773210 -0.000049 -15.257908 16.188479 -32.872085 35.509587 -4.573176 10.809924 66.380812 -29.908008 29.548747 25.917433 -18.540863 10.281094 0.000001 0.000001 0.000001 5.945865 -6.875898 81.685340 8.620185 -6.745017 103.956579 0.000003 -0.000001 -0.000001 5.945859 -6.875896 81.685340 8.620180 -6.745015 103.956565 -0.000001 0.000001 0.000001 5.945861 -6.875892 81.685340 8.620185 -6.745013 103.956579 0.000003 0.000001 0.000000 5.945867 -6.875901 81.685340 8.620186 -6.745010 103.956579 0.000003 -0.000001 -0.000004 -31.289677 25.258210 14.474824 26.387493 8.903130 10.480668 0.940064 0.301118 -11.205616 -0.000000 -0.000001 -0.000005 -0.000000 0.000000 0.000000 -22.599581 -16.669326 -9.941019 31.273729 -1.271574 -7.224154 -10.740797 -1.469428 10.300411 -0.000020 0.000009 0.000001 0.000000 -0.000002 -0.000000 
-0.165634 97.174103 -0.162055 1.364464 -27.053590 0.979091 3.647622 -1.988796 0.849598 1.359632 -0.820063 0.173906 0.000000 0.000000 0.000000 1.363165 -0.813144 0.178891 -1.864814 4.541551 2.505153 17.054354 24.890944 -12.708788 0.000002 -0.000000 -0.000000 -0.306417 3.435013 4.888568 0.000000 0.000000 0.000000 -51.635854 -1.710343 -52.332790 -0.000528 -84.553876 -0.000513 -12.412320 -17.397689 -7.494335 27.590954 19.106293 -21.055327 27.859551 42.153008 14.703686 8.091817 17.848666 9.739464 0.000001 -0.000001 0.000000 6.438753 6.867030 -86.304617 7.312862 6.867698 -93.605291 0.000000 -0.000003 -0.000002 6.436815 6.866894 -86.288409 7.314800 6.867578 -93.621519 -0.000000 0.000003 0.000000 6.438751 6.867028 -86.304617 7.312865 6.867698 -93.605291 0.000002 0.000001 -0.000002 10.514965 7.128937 -86.291032 7.312028 2.781442 -93.595284 -0.000000 0.000001 -0.000001 -1.123387 -10.721030 8.300134 0.000000 0.000000 0.000000 -60.963277 65.619840 77.514376 -0.000012 81.780683 -0.000007 -15.193578 16.057426 -32.834475 35.509587 -4.573179 10.809929 66.380819 -29.908008 29.548747 25.917435 -18.540864 10.281099 -0.000000 -0.000002 0.000000 5.945865 -6.875901 81.685347 8.620181 -6.745011 103.956579 -0.000000 -0.000000 -0.000001 5.945862 -6.875900 81.685347 8.620188 -6.745016 103.956565 0.000001 0.000000 0.000001 5.945864 -6.875898 81.685347 8.620184 -6.745012 103.956579 -0.000003 0.000006 0.000003 5.945868 -6.875904 81.685347 8.620186 -6.745015 103.956579 -0.000001 0.000000 0.000000 -31.312572 25.296009 14.499832 26.392891 8.853040 10.480835 0.939332 0.301264 -11.194471 -0.000000 -0.000001 -0.000005 0.000000 -0.000000 -0.000000 -22.586852 -16.655213 -9.926585 31.262821 -1.300920 -7.219352 -10.736667 -1.468704 10.304011 -0.000020 0.000010 0.000001 0.000000 0.000000 0.000000 
-0.166149 97.174980 -0.164382 1.364846 -27.047780 0.973783 3.640726 -1.987213 0.850057 1.357168 -0.820010 0.174018 0.000000 0.000000 0.000000 1.360709 -0.813098 0.179006 -1.855647 4.538357 2.513962 17.052541 24.893854 -12.712151 0.000001 -0.000000 0.000000 -0.305923 3.446128 4.864928 0.000000 0.000000 0.000000 -51.651482 -1.736588 -52.386711 -0.001669 -84.533891 -0.001689 -12.479405 -17.438731 -7.531176 27.590954 19.106290 -21.055323 27.859554 42.153008 14.703683 8.091816 17.848662 9.739460 0.000000 0.000000 -0.000005 6.438756 6.867027 -86.304617 7.312862 6.867699 -93.605291 -0.000000 -0.000003 0.000002 6.436816 6.866893 -86.288416 7.314805 6.867573 -93.621526 -0.000001 -0.000000 0.000007 6.438751 6.867022 -86.304617 7.312867 6.867698 -93.605291 0.000001 0.000001 0.000000 10.514967 7.128934 -86.291025 7.312023 2.781441 -93.595284 -0.000000 -0.000001 -0.000001 -1.121535 -10.736591 8.342945 0.000000 0.000000 0.000000 -60.928409 65.648486 77.475246 -0.000130 81.786126 0.000104 -15.145982 15.930515 -32.810251 35.509593 -4.573177 10.809930 66.380819 -29.908015 29.548747 25.917433 -18.540864 10.281099 -0.000001 0.000000 -0.000000 5.945863 -6.875898 81.685340 8.620184 -6.745013 103.956579 0.000001 -0.000001 0.000000 5.945862 -6.875899 81.685340 8.620183 -6.745012 103.956558 0.000001 -0.000000 0.000001 5.945862 -6.875895 81.685340 8.620182 -6.745008 103.956579 -0.000000 0.000002 0.000001 5.945866 -6.875901 81.685340 8.620185 -6.745013 103.956579 0.000001 0.000001 -0.000001 -31.334545 25.335613 14.522464 26.397942 8.801925 10.481052 0.938643 0.301392 -11.182835 -0.000000 -0.000002 -0.000005 0.000000 -0.000001 0.000000 -22.576514 -16.635226 -9.917617 31.255598 -1.330209 -7.208541 -10.733711 -1.468126 10.305943 -0.000020 0.000010 0.000001 0.000000 0.000000 -0.000000 
